# xmcd
#
# Track frame offsets: 
#        150
#        21782
#        36932
#        52944
#        75017
#        92795
#        110235
#        123549
#        139993
#        153239
#        168950
#        186195
#        201179
#
# Disc length: 2910 seconds
#
# Revision: 0
# Processed by: cddbd v1.5.2PL0 Copyright (c) Steve Scherf et al.
# Submitted via: ExactAudioCopy v0.99pb5
#
DISCID=a70b5c0d
DTITLE=The Warped 45s - 10 Day Poem for Saskatchewan
DYEAR=2009
DGENRE=Rock
TTITLE0=10 Day Poem for Saskatchewan
TTITLE1=Progress
TTITLE2=Really Don't Mind
TTITLE3=Leader of the Lost Expedition
TTITLE4=(Bring on that) New Depression
TTITLE5=Trestle for a Train
TTITLE6=Two Month Old Apologies
TTITLE7=To the Daybreak
TTITLE8=Why oh Why
TTITLE9=Takes a Toll
TTITLE10=Radio Sky
TTITLE11=We Know One Thing
TTITLE12=Why Have You Passed Me By Grim Reaper
EXTD=
EXTT0=
EXTT1=
EXTT2=
EXTT3=
EXTT4=
EXTT5=
EXTT6=
EXTT7=
EXTT8=
EXTT9=
EXTT10=
EXTT11=
EXTT12=
PLAYORDER=
